<mxfile host="app.diagrams.net" modified="2021-07-16T00:01:55.854Z" agent="5.0 (Windows NT 10.0; Win64; x64) AppleWebKit/537.36 (KHTML, like Gecko) Chrome/91.0.4472.124 Safari/537.36" etag="z-hCRgnTms_Bk9jHmsaE" version="14.8.6" type="github">
  <diagram id="HoTlaWpVPgnCyWw3RKcb" name="Page-1">
    <mxGraphModel dx="1422" dy="1963" grid="1" gridSize="10" guides="1" tooltips="1" connect="1" arrows="1" fold="1" page="1" pageScale="1" pageWidth="827" pageHeight="1169" math="0" shadow="0">
      <root>
        <mxCell id="0" />
        <mxCell id="1" parent="0" />
        <mxCell id="koJMvgqPUV85EAbW6ZU8-24" style="edgeStyle=orthogonalEdgeStyle;rounded=0;orthogonalLoop=1;jettySize=auto;html=1;entryX=0.5;entryY=0;entryDx=0;entryDy=0;" edge="1" parent="1" source="koJMvgqPUV85EAbW6ZU8-1" target="koJMvgqPUV85EAbW6ZU8-3">
          <mxGeometry relative="1" as="geometry" />
        </mxCell>
        <mxCell id="koJMvgqPUV85EAbW6ZU8-1" value="" style="aspect=fixed;perimeter=ellipsePerimeter;html=1;align=center;shadow=0;dashed=0;spacingTop=3;image;image=img/lib/active_directory/internet_cloud.svg;" vertex="1" parent="1">
          <mxGeometry x="420" y="-290" width="79.37" height="50" as="geometry" />
        </mxCell>
        <mxCell id="koJMvgqPUV85EAbW6ZU8-25" style="edgeStyle=orthogonalEdgeStyle;rounded=0;orthogonalLoop=1;jettySize=auto;html=1;" edge="1" parent="1" source="koJMvgqPUV85EAbW6ZU8-3" target="koJMvgqPUV85EAbW6ZU8-4">
          <mxGeometry relative="1" as="geometry" />
        </mxCell>
        <mxCell id="koJMvgqPUV85EAbW6ZU8-3" value="" style="image;html=1;image=img/lib/clip_art/networking/Router_128x128.png" vertex="1" parent="1">
          <mxGeometry x="420" y="-130" width="80" height="80" as="geometry" />
        </mxCell>
        <mxCell id="koJMvgqPUV85EAbW6ZU8-32" style="edgeStyle=orthogonalEdgeStyle;rounded=0;orthogonalLoop=1;jettySize=auto;html=1;" edge="1" parent="1" source="koJMvgqPUV85EAbW6ZU8-4" target="koJMvgqPUV85EAbW6ZU8-17">
          <mxGeometry relative="1" as="geometry" />
        </mxCell>
        <mxCell id="koJMvgqPUV85EAbW6ZU8-4" value="" style="image;html=1;image=img/lib/clip_art/networking/Switch_128x128.png" vertex="1" parent="1">
          <mxGeometry x="420" y="180" width="80" height="80" as="geometry" />
        </mxCell>
        <mxCell id="koJMvgqPUV85EAbW6ZU8-5" value="" style="image;html=1;image=img/lib/clip_art/computers/Server_Rack_128x128.png" vertex="1" parent="1">
          <mxGeometry x="747" y="50" width="80" height="80" as="geometry" />
        </mxCell>
        <mxCell id="koJMvgqPUV85EAbW6ZU8-6" value="" style="shape=image;html=1;verticalAlign=top;verticalLabelPosition=bottom;labelBackgroundColor=#ffffff;imageAspect=0;aspect=fixed;image=https://cdn0.iconfinder.com/data/icons/luisance_pack/128/ordinateur_portable_allum.png" vertex="1" parent="1">
          <mxGeometry x="70" y="40" width="70" height="70" as="geometry" />
        </mxCell>
        <mxCell id="koJMvgqPUV85EAbW6ZU8-7" value="" style="shape=image;html=1;verticalAlign=top;verticalLabelPosition=bottom;labelBackgroundColor=#ffffff;imageAspect=0;aspect=fixed;image=https://cdn0.iconfinder.com/data/icons/luisance_pack/128/ordinateur_portable_allum.png" vertex="1" parent="1">
          <mxGeometry x="65" y="120" width="78" height="78" as="geometry" />
        </mxCell>
        <mxCell id="koJMvgqPUV85EAbW6ZU8-8" value="" style="shape=image;html=1;verticalAlign=top;verticalLabelPosition=bottom;labelBackgroundColor=#ffffff;imageAspect=0;aspect=fixed;image=https://cdn0.iconfinder.com/data/icons/luisance_pack/128/ordinateur_portable_allum.png" vertex="1" parent="1">
          <mxGeometry x="60" y="198" width="78" height="78" as="geometry" />
        </mxCell>
        <mxCell id="koJMvgqPUV85EAbW6ZU8-9" value="" style="shape=image;html=1;verticalAlign=top;verticalLabelPosition=bottom;labelBackgroundColor=#ffffff;imageAspect=0;aspect=fixed;image=https://cdn0.iconfinder.com/data/icons/luisance_pack/128/ordinateur_portable_allum.png" vertex="1" parent="1">
          <mxGeometry x="185.25" y="21.630000000000003" width="69.5" height="69.5" as="geometry" />
        </mxCell>
        <mxCell id="koJMvgqPUV85EAbW6ZU8-10" value="" style="shape=image;html=1;verticalAlign=top;verticalLabelPosition=bottom;labelBackgroundColor=#ffffff;imageAspect=0;aspect=fixed;image=https://cdn0.iconfinder.com/data/icons/luisance_pack/128/ordinateur_portable_allum.png" vertex="1" parent="1">
          <mxGeometry x="310" y="20.000000000000004" width="72.75" height="72.75" as="geometry" />
        </mxCell>
        <mxCell id="koJMvgqPUV85EAbW6ZU8-11" value="" style="shape=image;html=1;verticalAlign=top;verticalLabelPosition=bottom;labelBackgroundColor=#ffffff;imageAspect=0;aspect=fixed;image=https://cdn0.iconfinder.com/data/icons/luisance_pack/128/ordinateur_portable_eteint.png" vertex="1" parent="1">
          <mxGeometry x="64" y="290" width="74" height="74" as="geometry" />
        </mxCell>
        <mxCell id="koJMvgqPUV85EAbW6ZU8-12" value="" style="shape=image;html=1;verticalAlign=top;verticalLabelPosition=bottom;labelBackgroundColor=#ffffff;imageAspect=0;aspect=fixed;image=https://cdn0.iconfinder.com/data/icons/luisance_pack/128/ordinateur_portable_allum.png" vertex="1" parent="1">
          <mxGeometry x="170" y="372" width="68" height="68" as="geometry" />
        </mxCell>
        <mxCell id="koJMvgqPUV85EAbW6ZU8-13" value="" style="shape=image;html=1;verticalAlign=top;verticalLabelPosition=bottom;labelBackgroundColor=#ffffff;imageAspect=0;aspect=fixed;image=https://cdn0.iconfinder.com/data/icons/luisance_pack/128/ordinateur_portable_allum.png" vertex="1" parent="1">
          <mxGeometry x="320" y="372" width="68" height="68" as="geometry" />
        </mxCell>
        <mxCell id="koJMvgqPUV85EAbW6ZU8-15" value="" style="shape=image;html=1;verticalAlign=top;verticalLabelPosition=bottom;labelBackgroundColor=#ffffff;imageAspect=0;aspect=fixed;image=https://cdn0.iconfinder.com/data/icons/luisance_pack/128/ordinateur_portable_allum.png" vertex="1" parent="1">
          <mxGeometry x="71" y="364" width="68" height="68" as="geometry" />
        </mxCell>
        <mxCell id="koJMvgqPUV85EAbW6ZU8-16" value="" style="shape=image;html=1;verticalAlign=top;verticalLabelPosition=bottom;labelBackgroundColor=#ffffff;imageAspect=0;aspect=fixed;image=https://cdn1.iconfinder.com/data/icons/hardware-devices-and-gadgets/64/devices_MFP-128.png" vertex="1" parent="1">
          <mxGeometry x="745" y="230" width="82" height="82" as="geometry" />
        </mxCell>
        <mxCell id="koJMvgqPUV85EAbW6ZU8-17" value="" style="shape=mxgraph.cisco.wireless.wlan_controller;html=1;pointerEvents=1;dashed=0;fillColor=#036897;strokeColor=#ffffff;strokeWidth=2;verticalLabelPosition=bottom;verticalAlign=top;align=center;outlineConnect=0;" vertex="1" parent="1">
          <mxGeometry x="414.75" y="710" width="90.5" height="50" as="geometry" />
        </mxCell>
        <mxCell id="koJMvgqPUV85EAbW6ZU8-18" value="" style="shape=image;html=1;verticalAlign=top;verticalLabelPosition=bottom;labelBackgroundColor=#ffffff;imageAspect=0;aspect=fixed;image=https://cdn0.iconfinder.com/data/icons/pulse_pack_by_chromatix/128/tablette.png" vertex="1" parent="1">
          <mxGeometry x="71" y="580" width="70" height="70" as="geometry" />
        </mxCell>
        <mxCell id="koJMvgqPUV85EAbW6ZU8-19" value="" style="shape=image;html=1;verticalAlign=top;verticalLabelPosition=bottom;labelBackgroundColor=#ffffff;imageAspect=0;aspect=fixed;image=https://cdn0.iconfinder.com/data/icons/pulse_pack_by_chromatix/128/tablette.png" vertex="1" parent="1">
          <mxGeometry x="60" y="710" width="70" height="70" as="geometry" />
        </mxCell>
        <mxCell id="koJMvgqPUV85EAbW6ZU8-20" value="" style="shape=image;html=1;verticalAlign=top;verticalLabelPosition=bottom;labelBackgroundColor=#ffffff;imageAspect=0;aspect=fixed;image=https://cdn0.iconfinder.com/data/icons/pulse_pack_by_chromatix/128/tablette.png" vertex="1" parent="1">
          <mxGeometry x="180" y="930" width="80" height="80" as="geometry" />
        </mxCell>
        <mxCell id="koJMvgqPUV85EAbW6ZU8-21" value="" style="shape=image;html=1;verticalAlign=top;verticalLabelPosition=bottom;labelBackgroundColor=#ffffff;imageAspect=0;aspect=fixed;image=https://cdn0.iconfinder.com/data/icons/pulse_pack_by_chromatix/128/tablette.png" vertex="1" parent="1">
          <mxGeometry x="190" y="500" width="60" height="60" as="geometry" />
        </mxCell>
        <mxCell id="koJMvgqPUV85EAbW6ZU8-22" value="" style="shape=image;html=1;verticalAlign=top;verticalLabelPosition=bottom;labelBackgroundColor=#ffffff;imageAspect=0;aspect=fixed;image=https://cdn0.iconfinder.com/data/icons/pulse_pack_by_chromatix/128/tablette.png" vertex="1" parent="1">
          <mxGeometry x="64" y="830" width="70" height="70" as="geometry" />
        </mxCell>
        <mxCell id="koJMvgqPUV85EAbW6ZU8-33" value="" style="pointerEvents=1;shadow=0;dashed=0;html=1;strokeColor=none;fillColor=#505050;labelPosition=center;verticalLabelPosition=bottom;verticalAlign=top;outlineConnect=0;align=center;shape=mxgraph.office.devices.cell_phone_android_proportional;" vertex="1" parent="1">
          <mxGeometry x="737" y="610" width="17" height="31" as="geometry" />
        </mxCell>
        <mxCell id="koJMvgqPUV85EAbW6ZU8-34" value="" style="pointerEvents=1;shadow=0;dashed=0;html=1;strokeColor=none;fillColor=#505050;labelPosition=center;verticalLabelPosition=bottom;verticalAlign=top;outlineConnect=0;align=center;shape=mxgraph.office.devices.cell_phone_android_proportional;" vertex="1" parent="1">
          <mxGeometry x="505.25" y="979" width="17" height="31" as="geometry" />
        </mxCell>
        <mxCell id="koJMvgqPUV85EAbW6ZU8-35" value="" style="pointerEvents=1;shadow=0;dashed=0;html=1;strokeColor=none;fillColor=#505050;labelPosition=center;verticalLabelPosition=bottom;verticalAlign=top;outlineConnect=0;align=center;shape=mxgraph.office.devices.cell_phone_android_proportional;" vertex="1" parent="1">
          <mxGeometry x="350" y="500" width="17" height="31" as="geometry" />
        </mxCell>
        <mxCell id="koJMvgqPUV85EAbW6ZU8-36" value="" style="pointerEvents=1;shadow=0;dashed=0;html=1;strokeColor=none;fillColor=#505050;labelPosition=center;verticalLabelPosition=bottom;verticalAlign=top;outlineConnect=0;align=center;shape=mxgraph.office.devices.cell_phone_android_proportional;" vertex="1" parent="1">
          <mxGeometry x="730" y="770" width="17" height="31" as="geometry" />
        </mxCell>
        <mxCell id="koJMvgqPUV85EAbW6ZU8-37" value="" style="pointerEvents=1;shadow=0;dashed=0;html=1;strokeColor=none;fillColor=#505050;labelPosition=center;verticalLabelPosition=bottom;verticalAlign=top;outlineConnect=0;align=center;shape=mxgraph.office.devices.cell_phone_android_proportional;" vertex="1" parent="1">
          <mxGeometry x="720" y="929" width="17" height="31" as="geometry" />
        </mxCell>
        <mxCell id="koJMvgqPUV85EAbW6ZU8-38" value="" style="pointerEvents=1;shadow=0;dashed=0;html=1;strokeColor=none;fillColor=#505050;labelPosition=center;verticalLabelPosition=bottom;verticalAlign=top;outlineConnect=0;align=center;shape=mxgraph.office.devices.cell_phone_android_proportional;" vertex="1" parent="1">
          <mxGeometry x="600" y="960" width="17" height="31" as="geometry" />
        </mxCell>
        <mxCell id="koJMvgqPUV85EAbW6ZU8-39" value="" style="pointerEvents=1;shadow=0;dashed=0;html=1;strokeColor=none;fillColor=#505050;labelPosition=center;verticalLabelPosition=bottom;verticalAlign=top;outlineConnect=0;align=center;shape=mxgraph.office.devices.cell_phone_android_proportional;" vertex="1" parent="1">
          <mxGeometry x="397.75" y="979" width="17" height="31" as="geometry" />
        </mxCell>
        <mxCell id="koJMvgqPUV85EAbW6ZU8-40" value="" style="pointerEvents=1;shadow=0;dashed=0;html=1;strokeColor=none;fillColor=#505050;labelPosition=center;verticalLabelPosition=bottom;verticalAlign=top;outlineConnect=0;align=center;shape=mxgraph.office.devices.cell_phone_android_proportional;" vertex="1" parent="1">
          <mxGeometry x="550" y="490" width="17" height="31" as="geometry" />
        </mxCell>
        <mxCell id="koJMvgqPUV85EAbW6ZU8-41" value="" style="pointerEvents=1;shadow=0;dashed=0;html=1;strokeColor=none;fillColor=#505050;labelPosition=center;verticalLabelPosition=bottom;verticalAlign=top;outlineConnect=0;align=center;shape=mxgraph.office.devices.cell_phone_android_proportional;" vertex="1" parent="1">
          <mxGeometry x="728" y="514.5" width="17" height="31" as="geometry" />
        </mxCell>
        <mxCell id="koJMvgqPUV85EAbW6ZU8-42" value="" style="endArrow=none;dashed=1;html=1;dashPattern=1 3;strokeWidth=2;" edge="1" parent="1" target="koJMvgqPUV85EAbW6ZU8-41">
          <mxGeometry width="50" height="50" relative="1" as="geometry">
            <mxPoint x="499.37" y="720" as="sourcePoint" />
            <mxPoint x="549.37" y="670" as="targetPoint" />
          </mxGeometry>
        </mxCell>
        <mxCell id="koJMvgqPUV85EAbW6ZU8-43" value="" style="endArrow=none;dashed=1;html=1;dashPattern=1 3;strokeWidth=2;" edge="1" parent="1" source="koJMvgqPUV85EAbW6ZU8-20">
          <mxGeometry width="50" height="50" relative="1" as="geometry">
            <mxPoint x="370" y="801" as="sourcePoint" />
            <mxPoint x="420" y="751" as="targetPoint" />
          </mxGeometry>
        </mxCell>
        <mxCell id="koJMvgqPUV85EAbW6ZU8-44" value="" style="endArrow=none;dashed=1;html=1;dashPattern=1 3;strokeWidth=2;" edge="1" parent="1" target="koJMvgqPUV85EAbW6ZU8-17">
          <mxGeometry width="50" height="50" relative="1" as="geometry">
            <mxPoint x="110" y="860" as="sourcePoint" />
            <mxPoint x="160" y="810" as="targetPoint" />
          </mxGeometry>
        </mxCell>
        <mxCell id="koJMvgqPUV85EAbW6ZU8-45" value="" style="endArrow=none;dashed=1;html=1;dashPattern=1 3;strokeWidth=2;" edge="1" parent="1" target="koJMvgqPUV85EAbW6ZU8-17">
          <mxGeometry width="50" height="50" relative="1" as="geometry">
            <mxPoint x="100" y="740" as="sourcePoint" />
            <mxPoint x="150" y="690" as="targetPoint" />
          </mxGeometry>
        </mxCell>
        <mxCell id="koJMvgqPUV85EAbW6ZU8-46" value="" style="endArrow=none;dashed=1;html=1;dashPattern=1 3;strokeWidth=2;" edge="1" parent="1" target="koJMvgqPUV85EAbW6ZU8-17">
          <mxGeometry width="50" height="50" relative="1" as="geometry">
            <mxPoint x="110" y="620" as="sourcePoint" />
            <mxPoint x="160" y="570" as="targetPoint" />
          </mxGeometry>
        </mxCell>
        <mxCell id="koJMvgqPUV85EAbW6ZU8-47" value="" style="endArrow=none;dashed=1;html=1;dashPattern=1 3;strokeWidth=2;" edge="1" parent="1" target="koJMvgqPUV85EAbW6ZU8-17">
          <mxGeometry width="50" height="50" relative="1" as="geometry">
            <mxPoint x="410" y="990" as="sourcePoint" />
            <mxPoint x="460" y="940" as="targetPoint" />
          </mxGeometry>
        </mxCell>
        <mxCell id="koJMvgqPUV85EAbW6ZU8-48" value="" style="endArrow=none;dashed=1;html=1;dashPattern=1 3;strokeWidth=2;" edge="1" parent="1" target="koJMvgqPUV85EAbW6ZU8-40">
          <mxGeometry width="50" height="50" relative="1" as="geometry">
            <mxPoint x="455.25" y="710" as="sourcePoint" />
            <mxPoint x="505.25" y="660" as="targetPoint" />
          </mxGeometry>
        </mxCell>
        <mxCell id="koJMvgqPUV85EAbW6ZU8-50" value="" style="endArrow=none;dashed=1;html=1;dashPattern=1 3;strokeWidth=2;" edge="1" parent="1" target="koJMvgqPUV85EAbW6ZU8-33">
          <mxGeometry width="50" height="50" relative="1" as="geometry">
            <mxPoint x="460" y="720" as="sourcePoint" />
            <mxPoint x="510" y="670" as="targetPoint" />
          </mxGeometry>
        </mxCell>
        <mxCell id="koJMvgqPUV85EAbW6ZU8-51" value="" style="endArrow=none;dashed=1;html=1;dashPattern=1 3;strokeWidth=2;" edge="1" parent="1" target="koJMvgqPUV85EAbW6ZU8-17">
          <mxGeometry width="50" height="50" relative="1" as="geometry">
            <mxPoint x="517" y="991" as="sourcePoint" />
            <mxPoint x="567" y="941" as="targetPoint" />
          </mxGeometry>
        </mxCell>
        <mxCell id="koJMvgqPUV85EAbW6ZU8-52" value="" style="endArrow=none;dashed=1;html=1;dashPattern=1 3;strokeWidth=2;" edge="1" parent="1" target="koJMvgqPUV85EAbW6ZU8-17">
          <mxGeometry width="50" height="50" relative="1" as="geometry">
            <mxPoint x="617" y="969.5" as="sourcePoint" />
            <mxPoint x="667" y="919.5" as="targetPoint" />
          </mxGeometry>
        </mxCell>
        <mxCell id="koJMvgqPUV85EAbW6ZU8-53" value="" style="endArrow=none;dashed=1;html=1;dashPattern=1 3;strokeWidth=2;" edge="1" parent="1" target="koJMvgqPUV85EAbW6ZU8-17">
          <mxGeometry width="50" height="50" relative="1" as="geometry">
            <mxPoint x="728" y="940" as="sourcePoint" />
            <mxPoint x="778" y="890" as="targetPoint" />
          </mxGeometry>
        </mxCell>
        <mxCell id="koJMvgqPUV85EAbW6ZU8-54" value="" style="endArrow=none;dashed=1;html=1;dashPattern=1 3;strokeWidth=2;" edge="1" parent="1" source="koJMvgqPUV85EAbW6ZU8-17">
          <mxGeometry width="50" height="50" relative="1" as="geometry">
            <mxPoint x="695" y="830" as="sourcePoint" />
            <mxPoint x="745" y="780" as="targetPoint" />
          </mxGeometry>
        </mxCell>
        <mxCell id="koJMvgqPUV85EAbW6ZU8-55" value="" style="endArrow=none;dashed=1;html=1;dashPattern=1 3;strokeWidth=2;" edge="1" parent="1" target="koJMvgqPUV85EAbW6ZU8-35">
          <mxGeometry width="50" height="50" relative="1" as="geometry">
            <mxPoint x="455.25" y="730" as="sourcePoint" />
            <mxPoint x="505.25" y="680" as="targetPoint" />
          </mxGeometry>
        </mxCell>
        <mxCell id="koJMvgqPUV85EAbW6ZU8-56" value="" style="endArrow=none;dashed=1;html=1;dashPattern=1 3;strokeWidth=2;" edge="1" parent="1" target="koJMvgqPUV85EAbW6ZU8-21">
          <mxGeometry width="50" height="50" relative="1" as="geometry">
            <mxPoint x="455.25" y="720" as="sourcePoint" />
            <mxPoint x="505.25" y="670" as="targetPoint" />
          </mxGeometry>
        </mxCell>
        <mxCell id="koJMvgqPUV85EAbW6ZU8-57" value="" style="endArrow=classic;startArrow=classic;html=1;" edge="1" parent="1" target="koJMvgqPUV85EAbW6ZU8-16">
          <mxGeometry width="50" height="50" relative="1" as="geometry">
            <mxPoint x="472.25" y="230" as="sourcePoint" />
            <mxPoint x="522.25" y="180" as="targetPoint" />
          </mxGeometry>
        </mxCell>
        <mxCell id="koJMvgqPUV85EAbW6ZU8-58" value="" style="endArrow=none;html=1;" edge="1" parent="1" target="koJMvgqPUV85EAbW6ZU8-5">
          <mxGeometry width="50" height="50" relative="1" as="geometry">
            <mxPoint x="470" y="210" as="sourcePoint" />
            <mxPoint x="520" y="160" as="targetPoint" />
          </mxGeometry>
        </mxCell>
        <mxCell id="koJMvgqPUV85EAbW6ZU8-59" value="" style="endArrow=none;html=1;" edge="1" parent="1" source="koJMvgqPUV85EAbW6ZU8-13">
          <mxGeometry width="50" height="50" relative="1" as="geometry">
            <mxPoint x="397.75" y="276" as="sourcePoint" />
            <mxPoint x="447.75" y="226" as="targetPoint" />
          </mxGeometry>
        </mxCell>
        <mxCell id="koJMvgqPUV85EAbW6ZU8-60" value="" style="endArrow=none;html=1;" edge="1" parent="1" source="koJMvgqPUV85EAbW6ZU8-12">
          <mxGeometry width="50" height="50" relative="1" as="geometry">
            <mxPoint x="389" y="260" as="sourcePoint" />
            <mxPoint x="439" y="210" as="targetPoint" />
          </mxGeometry>
        </mxCell>
        <mxCell id="koJMvgqPUV85EAbW6ZU8-61" value="" style="endArrow=none;html=1;" edge="1" parent="1" target="koJMvgqPUV85EAbW6ZU8-10">
          <mxGeometry width="50" height="50" relative="1" as="geometry">
            <mxPoint x="455.25" y="200" as="sourcePoint" />
            <mxPoint x="505.25" y="150" as="targetPoint" />
          </mxGeometry>
        </mxCell>
        <mxCell id="koJMvgqPUV85EAbW6ZU8-62" value="" style="endArrow=none;html=1;" edge="1" parent="1" target="koJMvgqPUV85EAbW6ZU8-9">
          <mxGeometry width="50" height="50" relative="1" as="geometry">
            <mxPoint x="455.25" y="210" as="sourcePoint" />
            <mxPoint x="505.25" y="160" as="targetPoint" />
          </mxGeometry>
        </mxCell>
        <mxCell id="koJMvgqPUV85EAbW6ZU8-63" value="" style="endArrow=none;html=1;" edge="1" parent="1" source="koJMvgqPUV85EAbW6ZU8-15">
          <mxGeometry width="50" height="50" relative="1" as="geometry">
            <mxPoint x="381.25" y="260" as="sourcePoint" />
            <mxPoint x="431.25" y="210" as="targetPoint" />
          </mxGeometry>
        </mxCell>
        <mxCell id="koJMvgqPUV85EAbW6ZU8-64" value="" style="endArrow=none;html=1;" edge="1" parent="1" source="koJMvgqPUV85EAbW6ZU8-11">
          <mxGeometry width="50" height="50" relative="1" as="geometry">
            <mxPoint x="381.25" y="260" as="sourcePoint" />
            <mxPoint x="431.25" y="210" as="targetPoint" />
          </mxGeometry>
        </mxCell>
        <mxCell id="koJMvgqPUV85EAbW6ZU8-65" value="" style="endArrow=none;html=1;" edge="1" parent="1" source="koJMvgqPUV85EAbW6ZU8-8">
          <mxGeometry width="50" height="50" relative="1" as="geometry">
            <mxPoint x="388" y="276" as="sourcePoint" />
            <mxPoint x="438" y="226" as="targetPoint" />
          </mxGeometry>
        </mxCell>
        <mxCell id="koJMvgqPUV85EAbW6ZU8-66" value="" style="endArrow=none;html=1;" edge="1" parent="1" source="koJMvgqPUV85EAbW6ZU8-6">
          <mxGeometry width="50" height="50" relative="1" as="geometry">
            <mxPoint x="388" y="276" as="sourcePoint" />
            <mxPoint x="438" y="226" as="targetPoint" />
          </mxGeometry>
        </mxCell>
        <mxCell id="koJMvgqPUV85EAbW6ZU8-67" value="" style="endArrow=none;html=1;" edge="1" parent="1" source="koJMvgqPUV85EAbW6ZU8-7">
          <mxGeometry width="50" height="50" relative="1" as="geometry">
            <mxPoint x="389" y="276" as="sourcePoint" />
            <mxPoint x="439" y="226" as="targetPoint" />
          </mxGeometry>
        </mxCell>
      </root>
    </mxGraphModel>
  </diagram>
</mxfile>
